# xmcd CD database file
#
# Track frame offsets:
#	150
#	29505
#	55300
#	77456
#	97085
#	126695
#
# Disc length: 1986 seconds
#
# Revision: 1
# Processed by: cddbd v1.5.1PL0 Copyright (c) Steve Scherf et al.
# Submitted via: CDex 1.51
#
DISCID=5007c006
DTITLE=French Quarter - Another Day
DYEAR=2005
DGENRE=Jazz
TTITLE0=Africa
TTITLE1=Cry Me A River
TTITLE2=Fantasy
TTITLE3=Song For Toots
TTITLE4=What A Difference A Day Made
TTITLE5=Another Day
EXTD=YEAR: 2005
EXTT0=
EXTT1=
EXTT2=
EXTT3=
EXTT4=
EXTT5=
PLAYORDER=
